<svg style="position: absolute; width: 0; height: 0; overflow: hidden;" version="1.1" xmlns="http://www.w3.org/2000/svg">
<defs>
<symbol id="icon-social-twitter" viewBox="0 0 32 32">
<title>social-twitter</title>
<path d="M30.801 6.672c-1.101 0.489-2.286 0.819-3.528 0.968 1.268-0.76 2.243-1.964 2.701-3.399-1.187 0.705-2.502 1.216-3.901 1.491-1.121-1.193-2.717-1.94-4.484-1.94-3.392 0-6.143 2.751-6.143 6.144 0 0.481 0.054 0.95 0.159 1.399-5.105-0.255-9.632-2.7-12.662-6.418-0.529 0.908-0.832 1.963-0.832 3.088 0 2.131 1.085 4.012 2.733 5.113-1.007-0.031-1.954-0.308-2.782-0.768-0 0.027-0 0.052-0 0.078 0 2.976 2.118 5.458 4.928 6.022-0.516 0.141-1.058 0.217-1.618 0.217-0.396 0-0.78-0.038-1.156-0.11 0.781 2.44 3.051 4.216 5.739 4.266-2.103 1.647-4.751 2.63-7.629 2.63-0.496 0-0.985-0.030-1.466-0.087 2.719 1.743 5.948 2.761 9.416 2.761 11.3 0 17.478-9.362 17.478-17.479 0-0.265-0.006-0.53-0.018-0.794 1.2-0.869 2.241-1.951 3.064-3.183z"></path>
</symbol>
<symbol id="icon-social-pinterest" viewBox="0 0 32 32">
<title>social-pinterest</title>
<path d="M13.75 20.728c-0.767 4.024-1.705 7.882-4.481 9.897-0.857-6.082 1.259-10.65 2.24-15.499-1.675-2.82 0.202-8.494 3.735-7.096 4.348 1.72-3.764 10.483 1.68 11.577 5.687 1.142 8.008-9.865 4.482-13.444-5.094-5.169-14.829-0.119-13.632 7.282 0.291 1.809 2.16 2.358 0.746 4.855-3.26-0.723-4.233-3.294-4.108-6.722 0.202-5.612 5.042-9.541 9.897-10.084 6.14-0.688 11.902 2.254 12.698 8.029 0.896 6.519-2.772 13.579-9.337 13.071-1.779-0.138-2.527-1.020-3.921-1.867z"></path>
</symbol>
<symbol id="icon-social-facebook" viewBox="0 0 32 32">
<title>social-facebook</title>
<path d="M12.34 30.625v-13.765h-3.639l0-4.955h3.639c0 0 0-2.031 0-4.232 0-3.327 2.15-6.381 7.103-6.381 2.006 0 3.489 0.192 3.489 0.192l-0.117 4.627c0 0-1.513-0.014-3.163-0.014-1.786 0-2.072 0.823-2.072 2.19 0 1.080 0-2.303 0 3.618h5.378l-0.234 4.956h-5.144v13.765l-5.24-0z"></path>
</symbol>
<symbol id="icon-social-googleplus" viewBox="0 0 32 32">
<title>social-googleplus</title>
<path d="M17.992 3.594h-8.273c-3.659 0-6.869 2.695-6.869 5.767 0 3.333 2.545 5.752 6.051 5.752 0.072 0 0.143-0.002 0.213-0.005-0.134 0.362-0.202 0.718-0.202 1.061 0 0.623 0.214 1.21 0.652 1.778-0.204 0.003-0.412 0.005-0.628 0.005-4.183 0-7.717 2.627-7.717 5.737 0 2.744 3.376 4.735 8.028 4.735 5.067 0 7.718-2.888 7.718-5.74 0-2.328-0.75-3.725-2.766-5.152-0.876-0.62-1.856-1.648-1.856-2.096 0-0.651 0.109-0.964 1.33-1.917 1.112-0.868 2.248-2.007 2.248-3.866 0-1.433-0.443-2.927-1.286-3.736h1.067l2.29-2.323zM11.475 19.536c0.187 0.13 0.368 0.253 0.542 0.372 1.244 0.847 2.066 1.407 2.314 2.376 0.055 0.237 0.083 0.475 0.083 0.708 0 2.4-1.744 3.616-5.182 3.616-2.624 0-4.68-1.638-4.68-3.728 0-1.928 2.388-3.618 5.111-3.618l0.068 0c0.601 0.006 1.188 0.099 1.744 0.274zM10.073 13.699l-0.072-0.001c-1.797-0.054-3.515-2.055-3.83-4.459-0.175-1.33 0.112-2.534 0.788-3.304 0.458-0.523 1.059-0.799 1.735-0.799l0.074 0.001c1.802 0.054 3.521 2.024 3.832 4.392 0.178 1.352-0.118 2.582-0.811 3.372-0.459 0.523-1.052 0.799-1.716 0.799zM25.472 8.461v-4.968h-1.901v4.968h-4.97v1.902h4.97v4.969h1.901v-4.969h4.969v-1.902z"></path>
</symbol>
<symbol id="icon-general-tk-logo" viewBox="0 0 99 32">
<title>general-tk-logo</title>
<path d="M39.535 23.92c-0.27-0.129-0.514-0.080-0.618 0.118-0.429 1.126-1.543 4.068-3.138 5.13-0.674 0.45-1.356 0.397-1.811 0.273-0.716-0.196-1.296-0.687-1.547-1.099 5.791-4.116 4.935-12.011 1.374-12.098-0.965 0-1.945 0.621-2.754 1.735-1.115 1.541-1.808 3.944-1.808 6.276 0 1.118 0.163 2.224 0.469 3.292-1.618 0.616-2.097 0.337-2.337-0.026-0.631-0.738-0.562-3.382-0.487-6.182 0-0.009 0.047-2.722 0.047-2.722 0-0.854-0.196-1.459-0.582-1.801-0.294-0.263-0.687-0.368-1.17-0.314-1.54 0.148-3.391 3.054-5.503 8.577 0.025-0.905 0.085-3.208 0.085-3.208 4.588-6.428 5.7-15.776 4.021-17.383-0.514-0.494-1.223-0.645-2-0.428-3.084 0.867-4.064 17.030-4.072 17.194-0.211 2.226-2.159 5.037-3.762 6.062-0.519 0.33-0.96 0.446-1.274 0.334-0.949-0.337-1.411-1.965-1.426-2.959v-0.268c0-2.826 0.539-7.395 1-10.77 4.698-0.399 5.346-0.46 5.427-0.46 0.646-0.033 0.625-1.384 0.625-1.384 0-0.48-0.273-0.552-0.391-0.563-1.109 0.184-2.79 0.359-5.397 0.524 0.037-0.251 0.366-2.436 0.366-2.436s0.257-1.626 0.257-1.631c0-0.607-0.862-0.881-1.38-0.991 0 0-0.291-0.079-0.339 0.226-0.018 0.080-0.734 4.506-0.802 4.945-4.593 0.253-9.341 0.383-10.366 0.383h-0.051l-0.087 0.038-0.069 0.073c-0.022 0.047-0.034 0.105-0.034 0.17 0 0.483 0.608 1.389 0.614 1.399 0.317 0.462 0.574 0.666 0.812 0.639 0 0 8.025-0.691 8.833-0.762-1.714 9.104-4.099 14.532-7.29 16.577-1.541 0.942-2.171 1.303-1.757 1.541 0.827 0.395 2.604 0.341 3.104 0.054 1.981-1.271 3.518-3.57 4.962-7.332 0.165 3.515 2.032 4.525 2.856 4.791 0.914 0.245 1.827 0.082 2.719-0.48 1.256-0.792 2.26-2.255 2.859-3.465-0.023 0.373-0.243 5.28-0.243 5.28 0 0.245 0.003 0.324 0.102 0.386 0.24 0.232 1.523 0.251 1.689-0.080 0.165-0.328 0.857-2.554 1.065-3.217 3.327-8.93 4.481-9.345 4.677-9.355 0.075 0.002 0.115 0.023 0.125 0.148 0.001 0.202-0.221 6.229-0.221 6.229 0 2.542 0.571 4.177 1.698 4.858 0.934 0.564 2.265 0.434 3.842-0.359 1.48 1.94 4.041 2.87 6.018 1.628 2.16-1.423 3.444-6.558 3.444-6.558 0.086-0.188-0.127-0.428-0.371-0.545zM22.080 5.956c0.068-0.176 0.175-0.313 0.404-0.273 0.197 0.033 0.398 0.161 0.418 0.495-0.018 5.354-2.149 10.378-3.134 12.362 0.192-2.218 1.001-9.161 2.312-12.584zM31.574 26.463c-0.136-0.655-0.228-1.319-0.228-1.983 0-2.296 0.713-5.153 2.31-6.365 0.016-0.013 0.155-0.116 0.273-0.080 0.112 0.034 0.184 0.186 0.227 0.307 0.174 0.62 0.265 1.289 0.265 1.985-0 2.349-1.046 4.562-2.848 6.137zM98.451 9.82l-0.038-0.022-0.048 0.009c-1.762 0.402-5.22 0.87-7.871 1.197 0.033-0.271 0.446-3.553 0.446-3.553 0-0.009 0-0.019 0-0.030 0-0.096-0.069-0.299-0.831-0.841-0.753-0.535-0.981-0.546-1.109-0.487l-0.045 0.022-0.059 0.069-0.026 0.084c-0.005 0.023-0.514 4.526-0.565 5.001-3.622 0.422-6.746 0.729-7.528 0.78-0.115 0.045-0.201 0.121-0.201 0.346 0 0.134 0.032 0.323 0.1 0.585 0.135 0.496 0.451 1.314 1.046 1.253 0 0 5.561-0.768 6.327-0.875-0.039 0.273-0.454 3.208-0.454 3.208-0.348 1.788-0.728 3.196-1.128 4.188-0.786 2.39-1.853 3.167-2.421 3.412-0.275 0.123-0.483 0.144-0.594 0.144 0.062-0.47 0.1-0.93 0.1-1.371 0-2.12-0.708-3.82-1.946-4.514-0.757-0.391-1.501-0.409-2.156-0.054-0.659 0.397-1.051 1.242-1.051 2.265l0.004 0.137c0.048 1.453 0.928 3.434 3.208 4.684-0.362 1.433-1.023 2.536-1.927 2.991-0.857 0.436-1.68 0.296-2.031 0.146-1.823-0.783-2.111-2.508-2.027-3.736 0.216-3.21 1.273-5.459 3.545-6.758 0.095-0.062 0.137-0.186 0.155-0.346 0.039-0.389-0.191-1.034-0.552-1.26-0.136-0.087-0.21-0.11-0.34-0.033-1.225 0.656-3.401 2.418-4.549 6.225-0.637 2.453-1.98 5.864-2.89 5.837-0.116-0.011-0.56-0.107-0.56-2.352l0.102-5.375c0-2.017-0.237-3.444-1.39-3.852-2.262-0.66-4.293 2.69-5.321 4.791 0.165-1.062 0.551-3.509 0.551-3.509 0-0.011 0-0.021 0-0.032 0-0.262-0.154-0.432-0.426-0.558-0.437-0.202-1.157-0.287-1.379 0.068-0.006 0.002-2.344 10.826-6.341 10.71-2.768-0.165-4.076-4.084-4.855-5.435 5.148-2.212 7.852-5.83 7.878-5.865 0 0 0.471-0.452-0.429-1.508-0.306-0.351-0.622-0.478-0.863-0.353-2.073 3.206-5.287 5.030-7.139 5.88 0.030-0.378 0.419-5.071 0.419-5.071 2.311-4.197 4.075-9.652 4.075-12.994 0-1.237-0.245-2.184-0.788-2.667-0.505-0.404-1.125-0.503-1.711-0.271-0.522 0.204-2.051 0.798-2.753 5.651 0 0.005-0.659 6.485-0.659 6.485 0 0.004-0.294 3.32-0.294 3.32-0.873 1.398-3.211 4.591-3.234 4.618-0.073 0.375 0.056 0.671 0.357 0.933 0.297 0.253 0.84 0.515 1.051 0.453 0.054-0.030 0.112-0.086 1.676-2.414-0.062 0.673-1.191 12.315-1.191 12.315 0 0.25 0.334 0.324 0.659 0.366 0.058 0.007 1.447 0.186 1.552-0.318 0.003-0.015 0.391-4.819 0.462-5.714 1.469 2.151 2.6 4.62 5.621 4.802 1.618 0.098 3.044-0.596 4.118-2.006 0 0 0.652-1.009 1.081-1.671-0.1 0.429-0.964 4.064-1.055 4.56-0.080 0.532 1.276 0.612 1.626 0.45 0.216-0.18 0.437-0.753 1.173-2.717l0.824-2.181c0.992-2.611 2.326-5.271 3.319-6.618 0.48-0.653 0.785-0.998 0.98-1.173 0.242-0.241 0.357-0.166 0.426 0.111 0.33 1.747-1.311 11.022 2.27 11.213h0.003c1.162 0 2.131-0.996 3.048-3.066 0.457 1.135 1.531 2.929 4.049 3.217 3.998 0.323 4.95-3.487 5.262-4.71 0 0 0.014-0.048 0.026-0.096 0.335 0.048 0.749 0.080 1.367-0.026 0.816-0.144 1.793-0.771 2.5-1.528 0 0.075 0 0.157 0 0.157 0 0.006 0.048 2.043 0.048 2.043 0.146 2.722 0.712 5.244 3.861 5.317 1.513 0.034 3.963-1.047 5.886-4.214 0.151-0.239-0.391-1.451-0.511-1.642-0.043-0.062-0.137-0.21-0.302-0.193l-0.054 0.006-0.079 0.054-0.053 0.082c-0.738 1.658-2.933 3.929-4.847 3.9-0.579-0.009-1.543-0.021-1.719-3.418 0-0.002-0.048-1.921-0.048-1.921 0-2.135 0.154-4.557 0.485-7.624 0 0 0.432-3.443 0.485-3.885 2.85-0.411 7.59-1.108 8.052-1.243 0.273-0.103 0.367-0.548 0.397-0.901 0.008-0.075 0.015-0.175 0.015-0.286 0-0.304-0.044-0.676-0.248-0.8zM52 5.787c0.573-3.784 1.151-3.93 1.423-3.891 0.29 0.041 0.644 0.681-0.016 4.039s-1.534 5.218-2.134 6.643c0.161-1.575 0.152-3.008 0.727-6.791zM81.999 23.989c-0.125-0.062-2.309-1.472-2.074-3.777 0.151-0.77 0.849-0.646 1.022-0.586 1.046 0.368 1.371 2.24 1.052 4.363z"></path>
</symbol>
<symbol id="icon-general-search" viewBox="0 0 32 32">
<title>general-search</title>
<path d="M31.574 29.516l-7.024-7.024c1.926-2.376 3.128-5.364 3.128-8.656 0.002-7.63-6.21-13.836-13.84-13.836s-13.838 6.206-13.838 13.836c0 7.632 6.208 13.842 13.838 13.842 3.292 0 6.28-1.204 8.654-3.128l7.024 7.024c0.284 0.286 0.656 0.426 1.026 0.426 0.376 0 0.746-0.14 1.032-0.426 0.566-0.57 0.566-1.488 0-2.058zM13.838 24.77c-6.026 0-10.928-4.902-10.928-10.932 0-6.026 4.902-10.928 10.928-10.928 6.030 0 10.932 4.902 10.932 10.928 0 6.030-4.902 10.932-10.932 10.932z"></path>
</symbol>
<symbol id="icon-general-hamburger" viewBox="0 0 32 32">
<title>general-hamburger</title>
<path d="M1.456 2.91h29.088c0.806 0 1.456-0.652 1.456-1.456s-0.65-1.454-1.456-1.454h-29.088c-0.804 0-1.456 0.65-1.456 1.454s0.652 1.456 1.456 1.456zM30.544 14.546h-29.088c-0.804 0-1.456 0.65-1.456 1.454s0.652 1.454 1.456 1.454h29.088c0.806 0 1.456-0.65 1.456-1.454s-0.65-1.454-1.456-1.454zM30.544 29.092h-29.090c-0.804 0-1.454 0.65-1.454 1.452 0 0.806 0.65 1.456 1.454 1.456h29.090c0.806 0 1.456-0.65 1.456-1.456 0-0.802-0.65-1.452-1.456-1.452z"></path>
</symbol>
<symbol id="icon-general-heart" viewBox="0 0 32 32">
<title>general-heart</title>
<path d="M16 32l-1.606-1.364c-6.026-5.124-10.376-8.822-13.172-15.278-1.6-3.702-1.63-7.744-0.078-10.816 1.124-2.224 3.012-3.762 5.322-4.324 0.59-0.144 1.19-0.218 1.784-0.218 3.578 0 6.272 2.584 7.75 4.45 1.478-1.866 4.174-4.45 7.75-4.45 0.594 0 1.196 0.074 1.788 0.218 2.306 0.562 4.196 2.098 5.32 4.322 1.55 3.074 1.524 7.118-0.080 10.818-2.794 6.456-7.146 10.154-13.168 15.274l-1.61 1.368zM8.25 2.872c-0.36 0-0.724 0.044-1.086 0.132-1.88 0.458-2.896 1.786-3.416 2.818-1.176 2.328-1.12 5.472 0.152 8.41 2.484 5.746 6.322 9.066 12.1 13.978 5.778-4.912 9.614-8.232 12.102-13.978 1.274-2.938 1.326-6.082 0.15-8.41-0.52-1.034-1.538-2.36-3.414-2.818-0.362-0.088-0.728-0.132-1.088-0.132-3.708 0-6.446 4.77-6.474 4.818l-1.27 2.3-1.282-2.298c-0.026-0.050-2.73-4.82-6.474-4.82z"></path>
</symbol>
<symbol id="icon-general-map" viewBox="0 0 32 32">
<title>general-map</title>
<path d="M31.448 0.206c-0.346-0.228-0.782-0.27-1.164-0.104l-9.36 4.012-9.362-4.012c-0.308-0.132-0.662-0.132-0.968 0l-9.848 4.22c-0.454 0.192-0.746 0.638-0.746 1.13v25.318c0 0.412 0.208 0.798 0.552 1.026 0.206 0.134 0.442 0.204 0.678 0.204 0.164 0 0.33-0.036 0.484-0.1l9.364-4.012 9.36 4.012c0.312 0.13 0.658 0.13 0.97 0l9.848-4.218c0.452-0.194 0.744-0.64 0.744-1.132v-25.318c0-0.412-0.208-0.798-0.552-1.026zM12.308 3.098l7.382 3.166v22.64l-7.382-3.166v-22.64zM2.46 6.264l7.384-3.166v22.64l-7.384 3.166v-22.64zM29.54 25.738l-7.384 3.166v-22.64l7.384-3.166v22.64z"></path>
</symbol>
<symbol id="icon-general-current-location" viewBox="0 0 32 32">
<title>general-current-location</title>
<path d="M18.346 32c-0.034 0-0.064 0-0.1-0.004-0.622-0.042-1.146-0.476-1.306-1.076l-3.332-12.52-12.526-3.312c-0.602-0.158-1.036-0.682-1.080-1.304-0.042-0.622 0.314-1.2 0.888-1.442l29.092-12.228c0.542-0.232 1.172-0.108 1.592 0.312 0.418 0.418 0.542 1.046 0.312 1.59l-12.2 29.088c-0.228 0.546-0.758 0.896-1.34 0.896zM5.956 13.37l9.212 2.436c0.504 0.132 0.9 0.526 1.034 1.032l2.452 9.21 9.172-21.872-21.87 9.194z"></path>
</symbol>
<symbol id="icon-general-star" viewBox="0 0 32 32">
<title>general-star</title>
<path d="M24.992 32c-0.242 0-0.484-0.060-0.706-0.184l-8.286-4.59-8.288 4.59c-0.486 0.272-1.086 0.238-1.542-0.082-0.454-0.322-0.688-0.876-0.598-1.426l1.598-9.818-6.756-6.948c-0.38-0.392-0.512-0.962-0.338-1.48 0.172-0.518 0.62-0.896 1.158-0.978l9.284-1.424 4.166-8.892c0.48-1.024 2.154-1.024 2.632 0l4.164 8.892 9.284 1.424c0.54 0.084 0.988 0.46 1.164 0.978 0.168 0.518 0.042 1.088-0.34 1.48l-6.762 6.944 1.6 9.82c0.092 0.55-0.142 1.106-0.596 1.424-0.25 0.18-0.542 0.27-0.838 0.27zM4.47 13.538l5.296 5.442c0.324 0.332 0.47 0.794 0.396 1.252l-1.236 7.582 6.37-3.528c0.438-0.246 0.968-0.246 1.406 0l6.372 3.528-1.236-7.58c-0.076-0.458 0.070-0.922 0.392-1.254l5.296-5.444-7.252-1.112c-0.48-0.072-0.892-0.38-1.094-0.82l-3.18-6.786-3.178 6.786c-0.206 0.44-0.618 0.75-1.096 0.822l-7.256 1.112z"></path>
</symbol>
<symbol id="icon-general-caret-right" viewBox="0 0 13 32">
<title>general-caret-right</title>
<path d="M1.454 0c0.466 0 0.922 0.224 1.204 0.638l10.418 15.366-10.42 15.36c-0.448 0.664-1.356 0.836-2.018 0.386-0.664-0.452-0.838-1.356-0.388-2.020l9.314-13.726-9.314-13.734c-0.45-0.664-0.276-1.568 0.388-2.020 0.25-0.168 0.536-0.25 0.816-0.25z"></path>
</symbol>
<symbol id="icon-general-phone" viewBox="0 0 32 32">
<title>general-phone</title>
<path d="M23.012 32c-4.492 0-11.548-4.656-14.916-8.022-3.336-3.33-9.278-11.876-7.888-16.538 0.706-2.37 4.534-7.21 7.488-7.44 0.002 0 0.004 0 0.006 0 3.034 0 6.918 4.026 8.012 6.64 1.076 2.594-0.078 4.154-0.624 4.702-0.838 0.85-1.678 1.386-2.292 1.78-0.252 0.156-0.422 0.264-0.536 0.34 0.272 0.86 1.778 2.364 2.806 3.39 1.096 1.090 2.636 2.622 3.482 2.882 0.076-0.118 0.164-0.266 0.278-0.448 0.354-0.59 0.906-1.502 1.812-2.412 0.63-0.64 1.45-1.012 2.362-1.074l0.3-0.010c2.15 0 4.304 1.702 5.396 2.716 0.77 0.712 3.292 3.222 3.3 5.47 0.008 3.026-4.878 7.030-7.376 7.796-0.484 0.152-1.026 0.228-1.61 0.228zM7.81 2.904c-1.128 0.094-4.26 3.506-4.816 5.368-0.79 2.654 3.344 9.842 7.156 13.65 3.39 3.382 9.612 7.168 12.862 7.168 0.292 0 0.548-0.034 0.756-0.096 1.986-0.612 5.326-3.936 5.322-5.010-0.002-0.554-0.908-1.992-2.372-3.344-1.268-1.18-2.61-1.942-3.416-1.942-0.3 0.018-0.466 0.092-0.6 0.224-0.656 0.662-1.082 1.368-1.392 1.878-0.596 0.97-1.112 1.798-2.316 1.866-2.108 0.124-4.004-1.79-5.922-3.7-1.958-1.952-3.75-3.742-3.76-5.722 0-1.396 0.914-1.958 1.878-2.552 0.596-0.38 1.22-0.778 1.832-1.398 0.376-0.378 0.21-1.044 0.004-1.54-0.874-2.088-4.034-4.85-5.216-4.85z"></path>
</symbol>
<symbol id="icon-general-email" viewBox="0 0 32 32">
<title>general-email</title>
<path d="M27.636 0h-23.272c-2.406 0-4.364 1.958-4.364 4.364v23.274c0 2.404 1.958 4.362 4.364 4.362h23.274c2.404 0 4.362-1.958 4.362-4.364v-23.272c0-2.406-1.958-4.364-4.364-4.364zM27.346 2.91c-3.704 4.45-8.992 9.696-11.346 9.696s-7.642-5.246-11.346-9.696h22.692zM27.636 29.092h-23.272c-0.802 0-1.454-0.654-1.454-1.456v-22.272c3.138 3.716 9.144 10.15 13.090 10.15s9.952-6.436 13.092-10.15v22.272c0 0.802-0.654 1.456-1.456 1.456z"></path>
</symbol>
<symbol id="icon-general-share" viewBox="0 0 32 32">
<title>general-share</title>
<path d="M8.948 8.22l5.598-3.762-0.002 16.77c0 0.796 0.65 1.442 1.456 1.442 0.802 0 1.454-0.644 1.454-1.442v-16.77l5.6 3.762c0.25 0.168 0.534 0.248 0.814 0.248 0.466 0 0.924-0.22 1.206-0.63 0.45-0.658 0.276-1.556-0.388-2l-8.686-5.838-8.686 5.836c-0.664 0.446-0.838 1.342-0.386 2 0.45 0.662 1.354 0.832 2.020 0.384zM29.092 14.888l-0.016 14.058-0.244 0.17h-25.664l-0.258-0.264v-13.964h-2.91v13.964c0 0.426 0.084 0.836 0.25 1.224 0.16 0.372 0.384 0.704 0.68 1.004 0.292 0.286 0.626 0.51 1.010 0.674 0.394 0.164 0.81 0.246 1.228 0.246h25.664c0.418 0 0.832-0.082 1.236-0.25 0.376-0.158 0.712-0.382 1.014-0.682 0.282-0.286 0.506-0.614 0.666-0.984 0.166-0.382 0.252-0.796 0.252-1.23v-13.966h-2.908z"></path>
</symbol>
<symbol id="icon-general-close" viewBox="0 0 32 32">
<title>general-close</title>
<path d="M18.056 16l13.518-13.516c0.568-0.568 0.568-1.49 0-2.058s-1.488-0.568-2.056 0l-13.518 13.518-13.516-13.518c-0.568-0.568-1.49-0.568-2.058 0s-0.568 1.49 0 2.058l13.518 13.516-13.518 13.518c-0.568 0.568-0.568 1.488 0 2.056 0.284 0.284 0.656 0.426 1.028 0.426 0.374 0 0.746-0.142 1.030-0.426l13.516-13.518 13.518 13.518c0.282 0.284 0.656 0.426 1.026 0.426 0.374 0 0.744-0.142 1.030-0.426 0.568-0.568 0.568-1.488 0-2.056l-13.518-13.518z"></path>
</symbol>
<symbol id="icon-general-filter" viewBox="0 0 32 32">
<title>general-filter</title>
<path d="M30.94 8.71c0.668-0.71 1.060-1.514 1.060-2.432 0-4.314-8.294-6.278-16-6.278s-16 1.964-16 6.278c0 0.918 0.396 1.724 1.062 2.434 2.334 3.526 8.156 9.164 13.378 13.902v7.862c0 0.838 0.698 1.524 1.56 1.524s1.56-0.686 1.56-1.526v-7.862c5.222-4.738 11.048-10.376 13.38-13.902zM16 3.054c8.37 0 12.88 2.29 12.89 3.11-0.034 0.14-0.17 0.366-0.3 0.584-1.084 1.070-5.402 2.752-12.59 2.752-7.3 0-11.664-1.742-12.66-2.808-0.076-0.14-0.194-0.316-0.222-0.414 0-0.936 4.514-3.224 12.882-3.224zM16 19.864c-2.972-2.724-6.004-5.668-8.39-8.146 2.574 0.564 5.52 0.836 8.39 0.836 2.86 0 5.8-0.27 8.372-0.834-2.386 2.488-5.41 5.426-8.372 8.144z"></path>
</symbol>
<symbol id="icon-general-caret-left" viewBox="0 0 13 32">
<title>general-caret-left</title>
<path d="M11.624 32c-0.466 0-0.924-0.224-1.206-0.638l-10.418-15.366 10.42-15.36c0.45-0.664 1.356-0.836 2.018-0.386 0.664 0.45 0.838 1.354 0.388 2.020l-9.312 13.726 9.314 13.734c0.45 0.664 0.276 1.568-0.388 2.020-0.252 0.168-0.536 0.25-0.816 0.25z"></path>
</symbol>
<symbol id="icon-general-tag" viewBox="0 0 32 32">
<title>general-tag</title>
<path d="M27.812 0h-8.194c-1.906 0-4.352 1.014-5.696 2.358l-12.698 12.7c-0.79 0.788-1.224 1.84-1.224 2.96s0.434 2.17 1.224 2.958l9.798 9.802c0.788 0.79 1.838 1.222 2.962 1.222 1.122 0 2.172-0.432 2.96-1.22l12.7-12.702c1.342-1.344 2.356-3.79 2.356-5.694v-8.196c0-2.31-1.876-4.188-4.188-4.188zM29.092 12.384c0 1.116-0.718 2.848-1.506 3.636l-12.7 12.702c-0.478 0.476-1.334 0.476-1.808 0l-9.796-9.802c-0.24-0.236-0.372-0.558-0.372-0.902 0-0.342 0.134-0.664 0.372-0.902l12.7-12.7c0.786-0.788 2.52-1.504 3.636-1.504h8.196c0.706 0 1.28 0.574 1.28 1.278v8.194zM23.312 6.51c-1.202 0-2.182 0.978-2.182 2.182s0.98 2.182 2.182 2.182 2.182-0.978 2.182-2.182-0.98-2.182-2.182-2.182zM22.586 8.692c0-0.4 0.326-0.728 0.726-0.728s0.726 0.328 0.726 0.728c0.002 0.8-1.452 0.8-1.452 0z"></path>
</symbol>
<symbol id="icon-general-plus" viewBox="0 0 32 32">
<title>general-plus</title>
<path d="M30.544 14.546h-13.090v-13.092c0-0.804-0.65-1.454-1.454-1.454s-1.454 0.65-1.454 1.454v13.092h-13.092c-0.804 0-1.454 0.65-1.454 1.454s0.65 1.454 1.454 1.454h13.092v13.090c0 0.806 0.65 1.456 1.454 1.456s1.454-0.65 1.454-1.456v-13.090h13.090c0.806 0 1.456-0.65 1.456-1.454s-0.65-1.454-1.456-1.454z"></path>
</symbol>
<symbol id="icon-general-arrow" viewBox="0 0 32 32">
<title>general-arrow</title>
<path d="M30.558 14.544h-26.102l8.252-12.274c0.448-0.666 0.276-1.57-0.382-2.020-0.656-0.45-1.554-0.276-2 0.386l-10.326 15.36 10.324 15.364c0.278 0.416 0.73 0.64 1.192 0.64 0.278 0 0.56-0.082 0.808-0.25 0.66-0.452 0.83-1.356 0.382-2.020l-8.246-12.276h26.098c0.798 0 1.442-0.652 1.442-1.454 0-0.806-0.644-1.456-1.442-1.456z"></path>
</symbol>
<symbol id="icon-general-edit" viewBox="0 0 32 32">
<title>general-edit</title>
<path d="M31.314 6.244l-5.588-5.59c-1.182-1.19-3.562-0.708-5.366 1.1l-14.486 14.504c-1.368 1.37-2.832 3.616-3.334 5.118l-2.334 7.020c-0.456 1.362-0.040 2.236 0.248 2.638 0.442 0.612 1.166 0.966 1.99 0.966 0.37 0 0.76-0.068 1.158-0.204l7.016-2.338c1.496-0.502 3.742-1.968 5.112-3.34l14.488-14.508c1.864-1.872 2.326-4.13 1.096-5.366zM2.44 30.544l-0.002-1.458h0.002v1.458zM13.668 24.060c-1.044 1.046-2.902 2.276-3.974 2.634l-6.59 2.196 2.194-6.59c0.362-1.078 1.59-2.938 2.632-3.98l10.064-10.078 5.738 5.742-10.064 10.076zM28.156 9.554l-2.37 2.372-5.738-5.742 2.37-2.372c0.596-0.596 1.152-0.854 1.434-0.918l5.222 5.226c-0.066 0.264-0.312 0.826-0.918 1.434z"></path>
</symbol>
<symbol id="icon-general-refresh" viewBox="0 0 32 32">
<title>general-refresh</title>
<path d="M30.98 0.058c-0.758-0.22-1.52 0.22-1.73 0.964l-1.726 6.060c-0.318-0.406-0.632-0.818-0.992-1.192-1.392-1.448-3.022-2.59-4.83-3.39-1.874-0.846-3.886-1.294-5.984-1.334-2.060-0.030-4.102 0.33-6.022 1.096-1.838 0.73-3.51 1.81-4.972 3.212-1.446 1.398-2.588 3.024-3.392 4.832-0.842 1.888-1.29 3.898-1.33 5.978-0.040 2.084 0.33 4.108 1.096 6.020 0.744 1.858 1.824 3.528 3.208 4.966 1.39 1.446 3.018 2.588 4.838 3.4 1.884 0.838 3.894 1.284 5.972 1.324 0.114 0.006 0.222 0.006 0.334 0.006 1.958 0 3.874-0.372 5.696-1.104 1.85-0.74 3.522-1.818 4.966-3.208 0.558-0.534 0.574-1.422 0.038-1.98-0.534-0.552-1.418-0.578-1.982-0.040-1.182 1.136-2.55 2.018-4.064 2.624-1.574 0.632-3.236 0.958-4.926 0.898-1.704-0.034-3.35-0.396-4.89-1.084-1.488-0.662-2.82-1.6-3.958-2.782-1.134-1.178-2.018-2.546-2.626-4.066-0.626-1.56-0.928-3.218-0.896-4.922s0.396-3.348 1.084-4.89c0.66-1.48 1.596-2.812 2.78-3.956 1.196-1.146 2.562-2.028 4.064-2.624 1.572-0.624 3.238-0.938 4.932-0.896 1.714 0.032 3.358 0.396 4.892 1.086 1.484 0.658 2.814 1.59 3.956 2.774 0.37 0.388 0.706 0.804 1.026 1.234l-6.72 0.684c-0.77 0.078-1.33 0.766-1.252 1.536 0.074 0.722 0.682 1.26 1.394 1.26 0.046 0 0.094-0.002 0.142-0.006l10.068-1.022 2.772-9.726c0.212-0.744-0.222-1.52-0.966-1.732z"></path>
</symbol>
<symbol id="icon-general-star-filled" viewBox="0 0 32 32">
<title>general-star-filled</title>
<path d="M24.992 32c-0.242 0-0.484-0.058-0.708-0.184l-8.284-4.59-8.288 4.59c-0.486 0.272-1.086 0.238-1.542-0.082-0.454-0.322-0.688-0.876-0.598-1.426l1.598-9.818-6.756-6.948c-0.38-0.392-0.512-0.962-0.338-1.48 0.172-0.518 0.62-0.896 1.158-0.978l9.284-1.424 4.166-8.892c0.48-1.024 2.154-1.024 2.632 0l4.164 8.892 9.284 1.424c0.542 0.084 0.988 0.46 1.164 0.978 0.168 0.518 0.042 1.088-0.34 1.48l-6.762 6.944 1.6 9.818c0.092 0.55-0.14 1.108-0.596 1.426-0.25 0.18-0.54 0.27-0.838 0.27z"></path>
</symbol>
<symbol id="icon-general-xo-logo" viewBox="0 0 149 32">
<title>general-xo-logo</title>
<path d="M15.176 5.702h-2.080l-5.238 7.218-5.236-7.218h-2.080l6.278 8.636-6.82 9.336h2.088l5.77-7.916 5.774 7.916h2.086l-6.814-9.336zM26.152 5.27c-5.266 0-9.39 4.124-9.39 9.392 0 5.266 4.124 9.386 9.39 9.386s9.392-4.122 9.392-9.386c-0.002-5.268-4.126-9.392-9.392-9.392zM26.152 22.406c-4.384 0-7.688-3.33-7.688-7.744s3.304-7.744 7.688-7.744c4.386 0 7.69 3.33 7.69 7.744s-3.304 7.744-7.69 7.744zM61.492 9.13c-1.62-2.436-4.31-3.862-7.368-3.862-5.144 0-9.174 4.124-9.174 9.392 0 5.266 4.030 9.386 9.174 9.386 3.058 0 5.748-1.418 7.368-3.858v3.212c0 4.214-2.72 6.832-7.096 6.832-3.486 0-5.792-1.396-7.264-4.402l-0.25-0.5-1.542 0.684 0.258 0.538c1.67 3.538 4.634 5.33 8.796 5.33 5.428 0 8.796-3.248 8.796-8.48v-17.7h-1.7v3.428zM54.124 22.406c-4.19 0-7.474-3.402-7.474-7.744 0-4.344 3.284-7.744 7.474-7.744 4.202 0 7.368 3.33 7.368 7.744s-3.168 7.744-7.368 7.744zM73.566 5.27c-1.796 0-3.454 0.862-4.574 2.342v-1.91h-1.698v17.972h1.698v-10.572c0-4.88 2.876-6.184 4.574-6.184 0.906 0 1.388 0.148 2.146 0.654l0.504 0.336 0.876-1.414-0.456-0.314c-0.99-0.682-1.764-0.91-3.070-0.91zM86.942 5.27c-5.264 0-9.388 4.124-9.388 9.392 0 5.266 4.124 9.386 9.388 9.386 5.268 0 9.394-4.122 9.394-9.386 0-5.268-4.128-9.392-9.394-9.392zM86.942 22.406c-4.378 0-7.69-3.33-7.69-7.744s3.31-7.744 7.69-7.744c4.382 0 7.694 3.33 7.694 7.744s-3.312 7.744-7.694 7.744zM112.626 16.326c0 4.43-3.496 6.080-5.702 6.080-3.784 0-5.702-1.958-5.702-5.808v-10.896h-1.7v10.896c0 4.736 2.696 7.452 7.4 7.452 1.828 0 4.178-0.736 5.702-2.748v2.374h1.702v-17.974h-1.702v10.624zM135.764 14.662c0-5.268-4.036-9.392-9.178-9.392-3.056 0-5.744 1.426-7.37 3.862v-3.43h-1.696v26.072h1.698v-11.582c1.624 2.44 4.312 3.858 7.37 3.858 5.14-0.002 9.176-4.122 9.176-9.388zM126.586 22.406c-4.2 0-7.37-3.33-7.37-7.744s3.17-7.744 7.37-7.744c4.194 0 7.476 3.4 7.476 7.744 0 4.342-3.282 7.744-7.476 7.744zM147.594 0l-15.402 32h1.852l15.4-32z"></path>
</symbol>
<symbol id="icon-general-tn-logo" viewBox="0 0 147 32">
<title>general-tn-logo</title>
<path d="M5.888 2.202h-3.004v27.591h3.004v2.206h-5.888v-31.998h5.888v2.202zM19.116 12.040h-5.661v10.107c0 1.445 0.259 2.735 1.899 2.735 1.863 0 1.971-1.825 1.971-3.271h2.663c0 3.571-1.372 5.701-5.090 5.701-4.409 0-4.563-3.004-4.563-6.531v-8.741h-3.386v-2.433h3.386v-3.804l3.117-1.061v4.865h5.661v2.433zM21.061 24.501h3.002v-19.988h-3.002v-2.431h6.119v10.678h0.076c0.836-2.208 3.229-3.533 5.815-3.533 4.33 0 6.157 2.164 6.157 6.306v8.968h3.002v2.433h-9.121v-2.433h3.002v-8.319c0-2.779-0.952-4.525-3.991-4.525-3.344 0-4.937 2.355-4.937 5.435v7.409h3.002v2.433h-9.123v-2.433zM46.066 19.14c0 3.995 2.245 5.741 6.308 5.741 1.981 0 4.712-1.105 4.905-3.342h2.884c-0.115 4.252-4.561 5.773-8.206 5.773-5.624 0-9.235-3.384-9.235-9.044 0-5.661 3.609-9.044 9.235-9.044 6.159 0 8.323 4.37 8.359 9.914h-14.251zM57.204 16.71c-0.195-3.155-2.096-5.052-5.474-5.052-3.002 0-5.665 1.863-5.665 5.052h11.14zM68.069 24.501h3.004v-12.462h-3.004v-2.433h6.121v3.153h0.074c0.838-2.208 3.231-3.533 5.819-3.533 4.33 0 6.149 2.164 6.149 6.306v8.968h3.004v2.433h-9.117v-2.433h3v-8.319c0-2.779-0.95-4.525-3.989-4.525-3.344 0-4.937 2.355-4.937 5.435v7.409h3.002v2.433h-9.123v-2.433zM93.080 19.14c0 3.995 2.24 5.741 6.304 5.741 1.979 0 4.714-1.105 4.905-3.342h2.888c-0.117 4.252-4.565 5.773-8.212 5.773-5.622 0-9.233-3.384-9.233-9.044 0-5.661 3.609-9.044 9.233-9.044 6.159 0 8.327 4.37 8.361 9.914h-14.247zM104.208 16.71c-0.185-3.155-2.084-5.052-5.47-5.052-3.002 0-5.657 1.863-5.657 5.052h11.128zM109.19 26.932v-6.042h2.431c0.076 3.35 2.813 3.991 5.663 3.991 1.487 0 3.571-0.838 3.571-2.699 0-2.355-2.544-2.319-4.443-2.584-3.193-0.528-7.069-0.912-7.069-4.937 0-3.689 3.537-5.433 6.728-5.433 2.24 0 4.33 0.721 5.279 2.466h0.078v-2.088h2.433v5.695h-2.433c0-3.040-2.13-3.647-4.754-3.647-1.821 0-4.212 0.498-4.212 2.699 0 1.977 2.958 2.015 5.204 2.433 3.074 0.53 6.533 1.027 6.533 4.939 0 4.025-3.683 5.586-7.22 5.586-2.050 0-4.483-0.798-5.283-2.775h-0.076v2.393h-2.431zM138.359 12.040h-5.671v10.107c0 1.445 0.269 2.735 1.907 2.735 1.861 0 1.971-1.825 1.971-3.271h2.663c0 3.571-1.372 5.701-5.094 5.701-4.407 0-4.559-3.004-4.559-6.531v-8.741h-3.384v-2.433h3.384v-3.804l3.109-1.061v4.865h5.671v2.433zM141.435 29.794h3.002v-27.593h-3.002v-2.202h5.888v32h-5.888v-2.206z"></path>
</symbol>
<symbol id="icon-general-tb-logo" viewBox="0 0 58 32">
<title>general-tb-logo</title>
<path d="M47.096 11.267h-2.535v20.733h2.535v-9.606h0.057c1.014 1.494 2.618 2.508 4.479 2.508 4.057 0 6.311-3.352 6.311-7.124 0-3.607-2.396-6.903-6.198-6.903-1.974 0-3.549 1.015-4.592 2.592h-0.057v-2.199zM51.126 22.646c-2.676 0-4.169-2.309-4.169-4.786 0-2.451 1.549-4.733 4.169-4.733 2.733 0 4.283 2.17 4.283 4.733 0 2.59-1.523 4.786-4.283 4.786zM28.142 11.267h-2.535v13.183h2.535v-6.479c0-2.055 0.225-4.846 2.927-4.846 2.34 0 2.425 2.621 2.425 4.338v6.985h2.535v-6.479c0-2.028 0.194-4.846 2.899-4.846 2.228 0 2.453 2.17 2.453 3.858v7.466h2.534v-7.889c0-2.985-0.902-5.689-4.367-5.689-1.659 0-3.239 0.93-4.055 2.338-0.846-1.467-2.084-2.338-3.805-2.338-1.436 0-2.76 0.902-3.493 2.055h-0.055v-1.657zM13.773 11.267v7.577c0 3.604 1.691 6.056 5.579 6.056 3.889 0 5.577-2.451 5.577-6.056v-7.577h-2.532v7.294c0 2.113-0.54 3.971-3.045 3.971-2.51 0-3.043-1.858-3.043-3.971v-7.294h-2.535zM0 24.45h2.535v-2.057h0.057c1.014 1.494 2.619 2.508 4.479 2.508 4.057 0 6.309-3.352 6.309-7.124 0-3.607-2.395-6.903-6.196-6.903-1.973 0-3.551 1.015-4.592 2.592h-0.057v-13.466h-2.535v24.45zM6.563 22.646c-2.674 0-4.169-2.309-4.169-4.786 0-2.451 1.547-4.733 4.169-4.733 2.731 0 4.28 2.17 4.28 4.733 0.002 2.59-1.52 4.786-4.28 4.786zM17.623 7.684c0.129-0.778 0.734-1.36 1.549-1.36 0.836 0 1.371 0.547 1.499 1.36h-3.048zM21.718 8.475v-0.163c0-1.615-0.813-2.896-2.545-2.896-1.758 0-2.652 1.256-2.652 2.932 0 1.606 1.009 2.86 2.673 2.86 1.058 0 2.012-0.548 2.524-1.489l-0.884-0.5c-0.396 0.652-0.826 1.058-1.628 1.058-0.998 0-1.627-0.873-1.64-1.803h4.152zM11.673 0.928v10.095h1.046v-2.501c0-0.988 0-2.175 1.347-2.175 1.069 0 1.198 0.629 1.198 1.559v3.118h1.046v-3.244c0-1.328-0.396-2.362-1.932-2.362-0.66 0-1.313 0.314-1.638 0.897h-0.021v-5.386h-1.046zM10.129 6.555h1.206v-0.975h-1.206v-2.081h-1.046v2.081h-1.21v0.975h1.21v4.464h1.046z"></path>
</symbol>
<symbol id="icon-social-instagram" viewBox="0 0 32 32">
<title>social-instagram</title>
<path d="M28.4 13.6h-2.8c0.2 0.8 0.4 1.6 0.4 2.4 0 5.4-4.4 9.8-9.8 9.8s-9.8-4.4-9.8-9.8c0-0.8 0.2-1.6 0.4-2.4h-3.2v13.6c0 0.6 0.6 1.2 1.2 1.2h22.2c0.6 0 1.2-0.6 1.2-1.2v-13.6zM28.4 5c0-0.6-0.6-1.2-1.2-1.2h-3.6c-0.6 0-1.2 0.6-1.2 1.2v3.6c0 0.6 0.6 1.2 1.2 1.2h3.6c0.6 0 1.2-0.6 1.2-1.2v-3.6zM16 9.8c-3.4 0-6.2 2.8-6.2 6.2s2.8 6.2 6.2 6.2 6.2-2.8 6.2-6.2c0-3.4-2.8-6.2-6.2-6.2zM28.4 32h-24.8c-2 0-3.6-1.6-3.6-3.6v-24.8c0-2 1.6-3.6 3.6-3.6h24.6c2 0 3.6 1.6 3.6 3.6v24.6c0.2 2.2-1.4 3.8-3.4 3.8z"></path>
</symbol>
<symbol id="icon-general-print" viewBox="0 0 32 32">
<title>general-print</title>
<path d="M9.502 6.666h12.876c1.114 0 2.018-0.906 2.018-2.020v-2.626c0-1.114-0.904-2.020-2.018-2.020h-12.876c-1.114 0-2.020 0.906-2.020 2.020v2.626c0 1.114 0.906 2.020 2.020 2.020zM10.482 3h10.914v0.666h-10.914v-0.666zM27.534 7.068h-23.166c-2.41 0-4.368 1.96-4.368 4.368v10.3c0 2.408 1.958 4.368 4.368 4.368h3.132v5.834h16.906l-0.004-5.834h3.13c2.408 0 4.368-1.958 4.368-4.368v-10.3c0-2.408-1.958-4.368-4.366-4.368zM21.4 28.98c-0.174 0-0.362 0-0.56 0l-10.358-0.006-0.102-8.252 11.022-0.12v8.378zM28.9 21.736c0 0.754-0.614 1.368-1.368 1.368h-3.13l-0.002-2.5c0-1.588-1.292-2.88-2.878-2.88h-11.144c-1.588 0-2.878 1.292-2.878 2.88v2.5h-3.132c-0.754 0-1.368-0.614-1.368-1.368v-10.3c0-0.754 0.614-1.368 1.368-1.368h23.166c0.754 0 1.368 0.614 1.368 1.368v10.3z"></path>
</symbol>
<symbol id="icon-general-info" viewBox="0 0 32 32">
<title>general-info</title>
<path d="M20.628 2.666c0 1.498-1.214 2.712-2.712 2.712s-2.712-1.214-2.712-2.712c0-1.498 1.214-2.712 2.712-2.712s2.712 1.214 2.712 2.712zM13.27 31.946c-0.572 0-1.098-0.128-1.554-0.426-0.934-0.606-1.782-1.994-0.514-5.17 0.48-1.206 0.974-2.41 1.48-3.64 1.248-3.042 2.54-6.192 3.836-9.854 0.236-0.67 0.3-1.080 0.312-1.306-0.67 0.082-2.266 0.746-4.288 2.37-0.606 0.484-1.484 0.384-1.968-0.22-0.482-0.606-0.384-1.49 0.22-1.974 1.602-1.286 5.572-4.106 7.796-2.518 1.158 0.828 1.348 2.372 0.564 4.586-1.32 3.728-2.624 6.908-3.886 9.986-0.5 1.22-0.992 2.418-1.468 3.614-0.394 0.99-0.452 1.522-0.45 1.758 0.856-0.014 3.342-1.196 5.808-3.756 0.54-0.558 1.424-0.574 1.98-0.038 0.556 0.54 0.572 1.43 0.036 1.988-2 2.080-5.388 4.6-7.904 4.6z"></path>
</symbol>
<symbol id="icon-general-heart-filled" viewBox="0 0 32 32">
<title>general-heart-filled</title>
<path d="M16 32l-1.606-1.364c-6.026-5.124-10.376-8.822-13.172-15.278-1.6-3.702-1.63-7.744-0.078-10.816 1.124-2.224 3.012-3.762 5.322-4.324 0.59-0.144 1.19-0.218 1.784-0.218 3.578 0 6.272 2.584 7.75 4.45 1.476-1.866 4.174-4.45 7.75-4.45 0.594 0 1.196 0.074 1.79 0.218 2.304 0.562 4.196 2.098 5.32 4.322 1.548 3.074 1.524 7.118-0.082 10.818-2.792 6.456-7.144 10.154-13.168 15.274l-1.61 1.368z"></path>
</symbol>
<symbol id="icon-general-arrow-angle" viewBox="0 0 32 32">
<title>general-arrow-angle</title>
<path d="M2.478 31.58l23.812-23.81 2.844 14.514c0.156 0.786 0.916 1.304 1.7 1.156 0.782-0.148 1.294-0.902 1.14-1.692l-3.56-18.158-18.164-3.562c-0.492-0.098-0.97 0.064-1.296 0.39-0.198 0.198-0.34 0.454-0.394 0.748-0.148 0.784 0.372 1.544 1.156 1.7l14.512 2.85-23.808 23.81c-0.562 0.562-0.558 1.476 0.008 2.042 0.57 0.57 1.486 0.578 2.050 0.012z"></path>
</symbol>
<symbol id="icon-general-settings" viewBox="0 0 32 32">
<title>general-settings</title>
<path d="M31.805 18.503c0.129-0.815 0.195-1.651 0.195-2.503 0-0.85-0.066-1.684-0.193-2.497h-2.557c-0.125-0.673-0.301-1.328-0.522-1.962l2.214-1.278c-0.272-0.708-0.594-1.393-0.959-2.048l-0.234-0.406c-0.393-0.657-0.83-1.283-1.31-1.874l-2.209 1.274c-0.441-0.515-0.922-0.996-1.436-1.439l1.273-2.206c-0.577-0.468-1.188-0.896-1.827-1.282l-0.506-0.292c-0.639-0.354-1.305-0.665-1.994-0.93l-1.271 2.201c-0.635-0.223-1.293-0.401-1.969-0.528v-2.539c-0.814-0.128-1.649-0.194-2.5-0.194s-1.686 0.066-2.5 0.194v2.535c-0.677 0.126-1.336 0.303-1.973 0.526l-1.267-2.194c-0.689 0.265-1.355 0.576-1.995 0.93l-0.506 0.291c-0.64 0.385-1.25 0.813-1.827 1.282l1.267 2.194c-0.517 0.444-0.999 0.927-1.444 1.443l-2.193-1.266c-0.479 0.591-0.917 1.217-1.31 1.874l-0.234 0.406c-0.366 0.656-0.687 1.34-0.959 2.048l2.196 1.268c-0.223 0.637-0.4 1.295-0.526 1.972h-2.535c-0.128 0.813-0.194 1.647-0.194 2.497 0 0.852 0.066 1.688 0.195 2.503h2.538c0.127 0.675 0.305 1.332 0.528 1.968l-2.2 1.271c0.607 1.578 1.457 3.036 2.504 4.327l2.203-1.271c0.443 0.514 0.924 0.994 1.438 1.436l-1.272 2.205c1.292 1.047 2.75 1.896 4.329 2.503l1.274-2.208c0.634 0.222 1.29 0.397 1.963 0.523v2.55c0.814 0.127 1.649 0.193 2.5 0.193s1.686-0.066 2.5-0.194v-2.554c0.672-0.127 1.326-0.303 1.959-0.525l1.278 2.214c1.579-0.606 3.036-1.456 4.329-2.503l-1.28-2.217c0.513-0.441 0.991-0.92 1.432-1.432l2.217 1.279c1.048-1.291 1.897-2.749 2.505-4.327l-2.219-1.28c0.223-0.633 0.398-1.287 0.525-1.958h2.559zM16.091 26.591c-5.788 0-10.5-4.71-10.5-10.5s4.712-10.5 10.5-10.5c5.792 0 10.5 4.71 10.5 10.5s-4.708 10.5-10.5 10.5z"></path>
</symbol>
<symbol id="icon-general-calendar" viewBox="0 0 32 32">
<title>general-calendar</title>
<path d="M30.604 4.372h-7.287v-2.915c-0.001-0.804-0.653-1.457-1.458-1.457s-1.457 0.653-1.457 1.457v2.915h-8.744v-2.915c0-0.804-0.653-1.457-1.457-1.457s-1.457 0.653-1.457 1.457v2.915h-7.286c-0.805 0-1.458 0.653-1.458 1.457v24.774c0 0.805 0.653 1.457 1.458 1.457h29.146c0.805 0 1.457-0.652 1.457-1.457v-24.774c0-0.804-0.653-1.457-1.457-1.457zM29.146 29.146h-26.231v-13.116h26.232v13.116zM29.146 13.116h-26.231v-5.829h5.829v1.457c0 0.805 0.653 1.458 1.458 1.458s1.457-0.653 1.457-1.458v-1.457h8.744v1.457c0 0.805 0.652 1.458 1.457 1.458s1.457-0.653 1.457-1.458v-1.457h5.83v5.829z"></path>
</symbol>
<symbol id="icon-general-radio-selected-state" viewBox="0 0 32 32">
<title>general-radio-selected-state</title>
<path d="M32 16c0-8.837-7.163-16-16-16s-16 7.163-16 16c0 8.837 7.163 16 16 16s16-7.163 16-16zM4.923 16c0-6.118 4.959-11.077 11.077-11.077s11.077 4.959 11.077 11.077c0 6.118-4.959 11.077-11.077 11.077s-11.077-4.959-11.077-11.077z"></path>
</symbol>
<symbol id="icon-general-k-logo" viewBox="0 0 18 32">
<title>general-k-logo</title>
<path d="M16.632 26.035c-0.19 0.024-1.755 1.947-4.186 1.91-2.478-0.027-5.582-3.703-6.502-5.154 5.313-2.222 8.263-5.103 8.6-5.608 0.338-0.51-1.097-2.307-1.611-1.931-2.472 3.394-5.193 4.478-7.141 5.364 0.082-0.933 0.391-4.397 0.402-4.512 2.218-3.827 4.964-9.285 4.964-12.779 0-1.272-0.56-2.277-1.203-2.817-0.609-0.458-1.748-0.651-2.439-0.393-1.749 0.641-2.531 2.004-3.041 5.749-0.004 0.013-0.692 6.391-0.692 6.391 0 0.009-0.264 2.775-0.301 3.189-0.951 1.435-3.429 4.782-3.429 4.843-0.325 0.368 0.941 2.174 1.557 1.454 0 0 2.040-3.038 2.004-3.072-0.099 0.933-0.951 7.067-0.951 7.067l-0.511 4.748-0.080 0.722c0 0.484 0.636 0.556 0.905 0.597 0.41 0.045 1.753 0.161 1.897-0.503 0.009-0.042 0.435-3.693 0.483-5.949 1.522 2.534 3.917 4.324 6.914 4.491 2.799 0.102 5.186-1.731 5.637-2.517 0.203-0.356-0.915-1.407-1.274-1.29zM7.020 3.248c0.296-0.928 0.884-1.006 1.192-0.947 0.31 0.057 1.061 0.396 0.993 1.371-0.061 0.798-0.34 2.099-1.002 3.901-0.546 1.494-1.598 3.647-2.213 5.119 0.192-1.603 0.314-3.96 0.446-5.599 0.118-1.452 0.304-2.975 0.584-3.845z"></path>
</symbol>
<symbol id="icon-general-checkmark-selected-state" viewBox="0 0 32 32">
<title>general-checkmark-selected-state</title>
<path d="M11.844 31.999c0.153-0.003 0.153-0.003 0.305-0.018 0.806-0.081 1.556-0.536 2.015-1.234l17.381-26.448c0.841-1.282 0.484-3.007-0.8-3.846-1.278-0.837-3.001-0.483-3.843 0.801l-16.488 25.088 2.243-0.23-7.918-7.907c-1.081-1.087-2.844-1.087-3.929 0.003-1.081 1.081-1.081 2.835 0 3.922l9.069 9.058c0.521 0.521 1.229 0.812 1.964 0.812z"></path>
</symbol>
<symbol id="icon-general-caret-up" viewBox="0 0 32 32">
<title>general-caret-up</title>
<path d="M31.362 19.88l-15.36-10.42-15.364 10.42c-0.664 0.45-0.838 1.356-0.388 2.020 0.452 0.666 1.356 0.838 2.022 0.386l13.732-9.31 13.728 9.31c0.664 0.452 1.568 0.28 2.020-0.386 0.448-0.664 0.274-1.57-0.39-2.020z"></path>
</symbol>
<symbol id="icon-general-caret-down" viewBox="0 0 32 32">
<title>general-caret-down</title>
<path d="M31.75 10.098c-0.452-0.666-1.356-0.838-2.020-0.386l-13.732 9.31-13.726-9.31c-0.666-0.452-1.57-0.28-2.020 0.386-0.452 0.666-0.28 1.572 0.386 2.022l15.358 10.42 15.364-10.42c0.666-0.45 0.84-1.356 0.39-2.022z"></path>
</symbol>
<symbol id="icon-general-selected-state" viewBox="0 0 32 32">
<title>general-selected-state</title>
<path d="M16 0c-8.836 0-16 7.164-16 16 0 8.838 7.164 16 16 16 8.838 0 16-7.162 16-16 0-8.836-7.162-16-16-16zM23.066 10.682l-7.902 12.024c-0.208 0.314-0.546 0.524-0.914 0.558-0.068 0.010-0.068 0.010-0.138 0.010-0.332 0-0.656-0.13-0.892-0.37l-4.124-4.116c-0.49-0.494-0.49-1.292 0-1.784 0.494-0.496 1.294-0.496 1.786 0l3.026 3.020 7.050-10.724c0.38-0.586 1.166-0.746 1.744-0.366 0.586 0.382 0.748 1.166 0.364 1.748z"></path>
</symbol>
<symbol id="icon-general-checkmark" viewBox="0 0 32 32">
<title>general-checkmark</title>
<path d="M11.426 32c-0.382 0-0.754-0.15-1.028-0.426l-9.972-9.96c-0.568-0.568-0.568-1.488 0-2.056 0.566-0.568 1.49-0.568 2.058 0l8.708 8.7 18.138-27.598c0.44-0.678 1.35-0.862 2.014-0.418 0.674 0.442 0.858 1.344 0.418 2.014l-19.122 29.088c-0.238 0.368-0.63 0.606-1.066 0.648-0.048 0.006-0.098 0.008-0.148 0.008z"></path>
</symbol>
<symbol id="icon-general-radio-selected" viewBox="0 0 32 32">
<title>general-radio-selected</title>
<path d="M27.2 16c0 6.186-5.014 11.2-11.2 11.2s-11.2-5.014-11.2-11.2c0-6.186 5.014-11.2 11.2-11.2s11.2 5.014 11.2 11.2z"></path>
</symbol>
<symbol id="icon-general-checkbox-selected" viewBox="0 0 32 32">
<title>general-checkbox-selected</title>
<path d="M14.574 23.418c-0.21 0.322-0.558 0.538-0.934 0.572-0.070 0.010-0.070 0.010-0.142 0.010-0.338 0-0.67-0.134-0.912-0.376l-4.21-4.206c-0.502-0.506-0.502-1.32 0-1.822 0.504-0.504 1.322-0.504 1.824 0l3.088 3.086 7.202-10.956c0.39-0.596 1.192-0.762 1.782-0.374 0.6 0.39 0.766 1.192 0.374 1.786l-8.072 12.28zM3.424 0c-1.89 0-3.424 1.544-3.424 3.424v25.152c0 1.89 1.544 3.424 3.424 3.424h25.152c1.89 0 3.424-1.542 3.424-3.424v-25.152c0-1.89-1.542-3.424-3.424-3.424h-25.152z"></path>
</symbol>
<symbol id="icon-general-grid" viewBox="0 0 32 32">
<title>general-grid</title>
<path d="M27.636 0h-23.272c-2.406 0-4.364 1.958-4.364 4.364v23.274c0 2.404 1.958 4.362 4.364 4.362h23.274c2.404 0 4.362-1.958 4.362-4.364v-23.272c0-2.406-1.958-4.364-4.364-4.364zM29.092 4.364v10.182h-11.638v-11.636h10.182c0.802 0 1.456 0.652 1.456 1.454zM4.364 2.91h10.182v11.636h-11.636v-10.182c0-0.802 0.652-1.454 1.454-1.454zM2.91 27.636v-10.182h11.636v11.638h-10.182c-0.802 0-1.454-0.654-1.454-1.456zM27.636 29.092h-10.182v-11.638h11.638v10.182c0 0.802-0.654 1.456-1.456 1.456z"></path>
</symbol>
<symbol id="icon-general-single" viewBox="0 0 32 32">
<title>general-single</title>
<path d="M27.636 0h-23.272c-2.406 0-4.364 1.958-4.364 4.364v23.274c0 2.404 1.958 4.362 4.364 4.362h23.274c2.404 0 4.362-1.958 4.362-4.364v-23.272c0-2.406-1.958-4.364-4.364-4.364zM29.092 27.636c0 0.8-0.652 1.456-1.456 1.456h-23.272c-0.804 0-1.454-0.654-1.454-1.456v-23.272c0-0.802 0.65-1.454 1.454-1.454h23.274c0.802 0 1.456 0.652 1.456 1.454v23.272z"></path>
</symbol>
<symbol id="icon-social-email" viewBox="0 0 32 32">
<title>social-email</title>
<path d="M-0.384 7.917v-3.75h32.768v3.737l-16.356 9.916-16.412-9.903zM-0.384 10.035v18.281h32.768v-18.291l-16.354 9.854-16.414-9.843z"></path>
</symbol>
<symbol id="icon-nav-signup-mobile" viewBox="0 0 37 32">
<title>nav-signup-mobile</title>
<path d="M27.256 32v0c0.009-0.193 0.001-0.392-0.023-0.594 0 0-0.161-7.968-5.196-10.712v0c-1.154 0.675-2.496 1.063-3.93 1.063-1.385 0-2.685-0.361-3.812-0.995-4.935 2.802-5.29 10.627-5.29 10.627-0.036 0.207-0.053 0.411-0.052 0.609-4.896-3.057-8.154-8.494-8.154-14.691 0-9.558 7.748-17.307 17.307-17.307s17.307 7.748 17.307 17.307c0 6.199-3.259 11.637-8.157 14.693zM18.107 19.325c2.947 0 5.336-2.389 5.336-5.336s-2.389-5.336-5.336-5.336c-2.947 0-5.336 2.389-5.336 5.336s2.389 5.336 5.336 5.336v0z"></path>
</symbol>
<symbol id="icon-general-minus" viewBox="0 0 32 32">
<title>general-minus</title>
<path d="M30.544 17.454h-29.090c-0.804 0-1.454-0.65-1.454-1.454s0.65-1.454 1.454-1.454h29.090c0.806 0 1.456 0.65 1.456 1.454s-0.65 1.454-1.456 1.454z"></path>
</symbol>
<symbol id="icon-conversations-inactive" viewBox="0 0 34 32">
<title>conversations-inactive</title>
<path d="M1.924 32v-3.385l0.876-0.43c1.478-0.723 2.969-2.099 2.972-3.54-3.677-2.669-5.771-6.487-5.771-10.579 0-7.757 7.605-14.066 16.951-14.066 9.343 0 16.948 6.309 16.948 14.066 0 7.755-7.605 14.064-16.948 14.064-0.625 0-1.241-0.028-1.849-0.083-3.635 3.285-7.875 3.83-11.577 3.915l-1.601 0.038zM16.951 3.127c-7.622 0-13.824 4.906-13.824 10.939 0 3.252 1.824 6.316 5.001 8.408l0.583 0.383 0.103 0.688c0.055 0.358 0.085 0.723 0.085 1.096 0 1.456-0.585 2.742-1.448 3.802 2.114-0.428 4.175-1.311 5.996-3.137l0.543-0.54 0.763 0.098c0.715 0.093 1.451 0.14 2.199 0.14 7.622 0 13.821-4.908 13.821-10.937 0.003-6.034-6.199-10.939-13.821-10.939z"></path>
</symbol>
<symbol id="icon-notification-bubble" viewBox="0 0 33 32">
<title>notification-bubble</title>
<path d="M25.069 0c-4.005 0-7.27 3.257-7.27 7.265 0 4.005 3.262 7.265 7.267 7.265s7.265-3.26 7.265-7.265c0-4.008-3.257-7.265-7.263-7.265z"></path>
</symbol>
<symbol id="icon-conversation" viewBox="0 0 33 32">
<title>conversation-active</title>
<path d="M29.385 16.553c-1.085 4.941-6.531 8.72-13.082 8.72-0.719 0-1.427-0.048-2.115-0.137l-0.734-0.094-0.524 0.524c-1.751 1.754-3.731 2.605-5.764 3.017 0.828-1.020 1.39-2.256 1.39-3.659 0-0.361-0.029-0.714-0.082-1.058l-0.101-0.662-0.558-0.366c-3.055-2.014-4.809-4.96-4.809-8.090 0-5.528 5.427-10.068 12.286-10.477 0.337-1.099 0.83-2.122 1.489-3.029-0.159-0.005-0.32-0.022-0.481-0.022-8.988 0.002-16.301 6.072-16.301 13.527 0 3.936 2.014 7.609 5.55 10.176 0 1.388-1.436 2.711-2.858 3.406l-0.842 0.414v3.255l1.537-0.036c3.563-0.079 7.64-0.606 11.138-3.765 0.582 0.053 1.174 0.082 1.775 0.082 8.988 0 16.298-6.069 16.298-13.532 0-0.173-0.024-0.344-0.031-0.517-0.897 0.967-1.973 1.756-3.183 2.321z"></path>
</symbol>
</defs>
</svg>
