<?xml version="1.0" encoding="utf-8"?>
<!-- Generated by IcoMoon.io -->
<!DOCTYPE svg PUBLIC "-//W3C//DTD SVG 1.1//EN" "http://www.w3.org/Graphics/SVG/1.1/DTD/svg11.dtd">
<svg version="1.1" xmlns="http://www.w3.org/2000/svg" xmlns:xlink="http://www.w3.org/1999/xlink" width="1579" height="512" viewBox="0 0 1579 512">
<g id="icomoon-ignore">
</g>
<path d="M632.558 382.716c-4.313-2.062-8.218-1.286-9.885 1.887-6.857 18.014-24.683 65.084-50.213 82.075-10.791 7.195-21.699 6.346-28.981 4.372-11.45-3.143-20.735-10.996-24.756-17.591 92.662-65.858 78.96-192.18 21.977-193.569-15.442 0-31.116 9.929-44.057 27.753-17.839 24.654-28.923 63.109-28.923 100.411 0 17.882 2.603 35.591 7.502 52.669-25.882 9.856-33.558 5.395-37.389-0.424-10.104-11.801-8.993-54.117-7.793-98.905 0-0.147 0.747-43.559 0.747-43.559 0-13.658-3.143-23.337-9.315-28.82-4.708-4.211-10.996-5.893-18.717-5.029-24.639 2.369-54.249 48.867-88.040 137.229 0.395-14.476 1.36-51.324 1.36-51.324 73.403-102.853 91.199-252.409 64.337-278.13-8.219-7.911-19.564-10.323-31.993-6.843-49.349 13.876-65.026 272.485-65.157 275.103-3.377 35.62-34.552 80.598-60.185 96.989-8.305 5.279-15.368 7.135-20.383 5.337-15.179-5.395-22.577-31.438-22.811-47.346v-4.285c0-45.211 8.627-118.323 15.997-172.322 75.173-6.391 85.54-7.355 86.827-7.355 10.337-0.526 10.002-22.138 10.002-22.138 0-7.677-4.372-8.832-6.259-9.007-17.737 2.939-44.642 5.746-86.358 8.379 0.6-4.022 5.849-38.983 5.849-38.983s4.109-26.013 4.109-26.101c0-9.71-13.789-14.095-22.079-15.85 0 0-4.649-1.257-5.425 3.612-0.293 1.272-11.742 72.088-12.839 79.121-73.492 4.051-149.454 6.127-165.861 6.127h-0.819l-1.389 0.614-1.096 1.169c-0.351 0.745-0.541 1.681-0.541 2.719 0 7.735 9.724 22.226 9.826 22.387 5.074 7.399 9.182 10.659 12.985 10.221 0 0 128.398-11.054 141.323-12.195-27.417 145.667-65.58 232.508-116.641 265.233-24.654 15.076-34.742 20.851-28.119 24.654 13.233 6.317 41.658 5.455 49.657 0.863 31.701-20.339 56.295-57.115 79.384-117.314 2.632 56.237 32.519 72.395 45.695 76.649 14.623 3.919 29.23 1.316 43.501-7.677 20.091-12.678 36.161-36.073 45.739-55.433-0.365 5.966-3.889 84.473-3.889 84.473 0 3.919 0.044 5.19 1.637 6.171 3.846 3.714 24.361 4.022 27.022-1.286 2.632-5.25 13.716-40.87 17.035-51.471 53.225-142.873 71.693-149.512 74.836-149.673 1.199 0.029 1.842 0.365 2.003 2.369 0.014 3.231-3.538 99.665-3.538 99.665 0 40.665 9.139 66.824 27.168 77.732 14.944 9.022 36.248 6.945 61.472-5.747 23.673 31.043 64.659 45.928 96.287 26.043 34.567-22.767 55.111-104.929 55.111-104.929 1.376-3.015-2.031-6.846-5.935-8.717zM353.273 95.302c1.082-2.822 2.807-5.001 6.462-4.372 3.159 0.526 6.361 2.573 6.683 7.925-0.293 85.672-34.377 166.050-50.14 197.795 3.072-35.489 16.013-146.573 36.995-201.349zM505.183 423.409c-2.179-10.484-3.641-21.1-3.641-31.731 0-36.731 11.406-82.454 36.965-101.844 0.263-0.205 2.486-1.857 4.372-1.286 1.798 0.541 2.938 2.968 3.626 4.913 2.778 9.914 4.241 20.618 4.241 31.76-0.001 37.579-16.743 72.995-45.563 98.188zM1575.223 157.125l-0.614-0.351-0.761 0.147c-28.192 6.435-83.523 13.92-125.941 19.155 0.526-4.329 7.135-56.851 7.135-56.851 0-0.147 0-0.307 0-0.483 0-1.535-1.096-4.781-13.292-13.453-12.048-8.553-15.704-8.73-17.737-7.793l-0.717 0.351-0.95 1.096-0.424 1.345c-0.073 0.365-8.218 72.424-9.037 80.013-57.948 6.755-107.941 11.669-120.443 12.487-1.842 0.717-3.217 1.93-3.217 5.542 0 2.149 0.512 5.161 1.593 9.358 2.164 7.94 7.223 21.027 16.728 20.047 0 0 88.977-12.282 101.229-13.993-0.629 4.372-7.267 51.324-7.267 51.324-5.571 28.601-11.655 51.133-18.044 67.013-12.575 38.237-29.653 50.666-38.735 54.599-4.401 1.974-7.735 2.31-9.505 2.31 0.994-7.516 1.593-14.885 1.593-21.933 0-33.924-11.332-61.121-31.13-72.219-12.107-6.259-24.024-6.536-34.494-0.863-10.543 6.346-16.816 19.871-16.816 36.248l0.059 2.193c0.775 23.249 14.856 54.95 51.324 74.939-5.791 22.928-16.362 40.577-30.839 47.858-13.716 6.974-26.875 4.738-32.49 2.34-29.171-12.531-33.777-40.123-32.432-59.776 3.45-51.353 20.369-87.339 56.719-108.131 1.521-0.993 2.194-2.968 2.486-5.541 0.629-6.229-3.056-16.538-8.832-20.164-2.179-1.389-3.363-1.755-5.439-0.526-19.608 10.498-54.423 38.69-72.789 99.606-10.191 39.246-31.672 93.816-46.235 93.392-1.857-0.175-8.963-1.711-8.963-37.637l1.638-85.993c0-32.271-3.787-55.097-22.241-61.633-36.189-10.557-68.695 43.034-85.13 76.649 2.647-16.991 8.817-56.149 8.817-56.149 0-0.175 0-0.337 0-0.512 0-4.197-2.457-6.916-6.813-8.935-6.99-3.231-18.512-4.592-22.065 1.082-0.102 0.029-37.506 173.215-101.449 171.357-44.29-2.632-65.215-65.347-77.688-86.959 82.366-35.385 125.635-93.275 126.044-93.846 0 0 7.53-7.238-6.872-24.126-4.899-5.615-9.958-7.647-13.804-5.644-33.163 51.294-84.59 80.481-114.229 94.079 0.482-6.053 6.711-81.138 6.711-81.138 36.98-67.145 65.201-154.44 65.201-207.899 0-19.799-3.919-34.947-12.604-42.668-8.072-6.463-18-8.043-27.373-4.329-8.349 3.261-32.812 12.765-44.043 90.409 0 0.073-10.543 103.759-10.543 103.759 0 0.059-4.708 53.123-4.708 53.123-13.964 22.372-51.383 73.462-51.748 73.887-1.169 5.995 0.892 10.733 5.717 14.93 4.752 4.050 13.438 8.247 16.816 7.253 0.863-0.483 1.798-1.375 26.817-38.618-0.994 10.762-19.053 197.034-19.053 197.034 0 3.992 5.337 5.19 10.543 5.849 0.921 0.117 23.146 2.968 24.829-5.088 0.044-0.235 6.259-77.103 7.384-91.418 23.497 34.421 41.6 73.915 89.941 76.825 25.896 1.565 48.707-9.534 65.887-32.096 0 0 10.426-16.142 17.298-26.729-1.608 6.858-15.427 65.025-16.875 72.965-1.287 8.51 20.413 9.797 26.013 7.195 3.451-2.88 6.99-12.048 18.761-43.471l13.189-34.903c15.879-41.775 37.213-84.341 53.108-105.894 7.677-10.454 12.56-15.967 15.675-18.761 3.875-3.86 5.717-2.661 6.813 1.769 5.278 27.957-20.983 176.358 36.322 179.415h0.044c18.599 0 34.099-15.938 48.765-49.058 7.311 18.161 24.493 46.865 64.777 51.471 63.972 5.176 79.194-55.798 84.195-75.363 0 0 0.219-0.775 0.424-1.535 5.367 0.775 11.989 1.286 21.874-0.424 13.057-2.31 28.689-12.341 40.006-24.449 0 1.199 0 2.515 0 2.515 0 0.088 0.775 32.695 0.775 32.695 2.34 43.559 11.391 83.901 61.778 85.072 24.215 0.541 63.402-16.757 94.181-67.423 2.413-3.831-6.258-23.22-8.175-26.276-0.687-0.993-2.194-3.363-4.825-3.085l-0.863 0.088-1.257 0.863-0.849 1.316c-11.801 26.525-46.923 62.861-77.556 62.407-9.256-0.147-24.682-0.337-27.504-54.687 0-0.029-0.775-30.736-0.775-30.736 0-34.157 2.457-72.906 7.765-121.978 0 0 6.916-55.082 7.765-62.159 45.607-6.58 121.438-17.721 128.836-19.887 4.372-1.652 5.864-8.773 6.347-14.417 0.132-1.198 0.235-2.793 0.235-4.577 0.003-4.869-0.7-10.82-3.975-12.794zM832.004 92.597c9.168-60.536 18.409-62.876 22.767-62.261 4.635 0.659 10.308 10.894-0.249 64.63s-24.551 83.493-34.143 106.289c2.573-25.208 2.427-48.121 11.624-108.657zM1311.979 383.828c-2.003-0.993-36.95-23.556-33.178-60.433 2.413-12.312 13.584-10.337 16.347-9.373 16.728 5.892 21.933 35.839 16.831 69.806z"></path>
</svg>
