<?xml version="1.0" encoding="utf-8"?>
<!-- Generated by IcoMoon.io -->
<!DOCTYPE svg PUBLIC "-//W3C//DTD SVG 1.1//EN" "http://www.w3.org/Graphics/SVG/1.1/DTD/svg11.dtd">
<svg version="1.1" xmlns="http://www.w3.org/2000/svg" xmlns:xlink="http://www.w3.org/1999/xlink" width="2391" height="512" viewBox="0 0 2391 512">
<g id="icomoon-ignore">
</g>
<path d="M242.816 91.232h-33.28l-83.808 115.488-83.776-115.488h-33.28l100.448 138.176-109.12 149.376h33.408l92.32-126.656 92.384 126.656h33.376l-109.024-149.376z"></path>
<path d="M418.432 84.32c-84.256 0-150.24 65.984-150.24 150.272 0 84.256 65.984 150.176 150.24 150.176s150.272-65.952 150.272-150.176c-0.032-84.288-66.016-150.272-150.272-150.272zM418.432 358.496c-70.144 0-123.008-53.28-123.008-123.904s52.864-123.904 123.008-123.904c70.176 0 123.040 53.28 123.040 123.904s-52.864 123.904-123.040 123.904z"></path>
<path d="M983.872 146.080c-25.92-38.976-68.96-61.792-117.888-61.792-82.304 0-146.784 65.984-146.784 150.272 0 84.256 64.48 150.176 146.784 150.176 48.928 0 91.968-22.688 117.888-61.728v51.392c0 67.424-43.52 109.312-113.536 109.312-55.776 0-92.672-22.336-116.224-70.432l-4-8-24.672 10.944 4.128 8.608c26.72 56.608 74.144 85.28 140.736 85.28 86.848 0 140.736-51.968 140.736-135.68v-283.2h-27.2v54.848zM865.984 358.496c-67.040 0-119.584-54.432-119.584-123.904 0-69.504 52.544-123.904 119.584-123.904 67.232 0 117.888 53.28 117.888 123.904s-50.688 123.904-117.888 123.904z"></path>
<path d="M1177.056 84.32c-28.736 0-55.264 13.792-73.184 37.472v-30.56h-27.168v287.552h27.168v-169.152c0-78.080 46.016-98.944 73.184-98.944 14.496 0 22.208 2.368 34.336 10.464l8.064 5.376 14.016-22.624-7.296-5.024c-15.84-10.912-28.224-14.56-49.12-14.56z"></path>
<path d="M1391.072 84.32c-84.224 0-150.208 65.984-150.208 150.272 0 84.256 65.984 150.176 150.208 150.176 84.288 0 150.304-65.952 150.304-150.176 0-84.288-66.048-150.272-150.304-150.272zM1391.072 358.496c-70.048 0-123.040-53.28-123.040-123.904s52.96-123.904 123.040-123.904c70.112 0 123.104 53.28 123.104 123.904s-52.992 123.904-123.104 123.904z"></path>
<path d="M1802.016 261.216c0 70.88-55.936 97.28-91.232 97.28-60.544 0-91.232-31.328-91.232-92.928v-174.336h-27.2v174.336c0 75.776 43.136 119.232 118.4 119.232 29.248 0 66.848-11.776 91.232-43.968v37.984h27.232v-287.584h-27.232v169.984z"></path>
<path d="M2172.224 234.592c0-84.288-64.576-150.272-146.848-150.272-48.896 0-91.904 22.816-117.92 61.792v-54.88h-27.136v417.152h27.168v-185.312c25.984 39.040 68.992 61.728 117.92 61.728 82.24-0.032 146.816-65.952 146.816-150.208zM2025.376 358.496c-67.2 0-117.92-53.28-117.92-123.904s50.72-123.904 117.92-123.904c67.104 0 119.616 54.4 119.616 123.904 0 69.472-52.512 123.904-119.616 123.904z"></path>
<path d="M2361.504 0l-246.432 512h29.632l246.4-512z"></path>
</svg>
