<?xml version="1.0" encoding="UTF-8" standalone="no"?>
<svg width="107px" height="35px" viewBox="0 0 107 35" version="1.1" xmlns="http://www.w3.org/2000/svg" xmlns:xlink="http://www.w3.org/1999/xlink">
    <!-- Generator: Sketch 42 (36781) - http://www.bohemiancoding.com/sketch -->
    <title>Shape</title>
    <desc>Created with Sketch.</desc>
    <defs></defs>
    <g id="Page-2" stroke="none" stroke-width="1" fill="none" fill-rule="evenodd">
        <g id="union-lsg-r1-copy-27" transform="translate(-31.000000, -14.000000)" fill="#72CAF2">
            <path d="M73.576551,39.8062295 C73.962147,39.9943256 74.1057815,40.2696827 74.0450501,40.5460094 L74.0132385,40.6875663 C73.7336814,41.9402473 72.8853702,45.7516167 70.5168469,47.3213463 C68.3690773,48.6787406 65.3797444,48.0650045 63.7351775,45.9881911 C62.0462671,46.8229887 60.6070301,46.956789 59.5803808,46.331418 C58.3310498,45.5722467 57.6967444,43.7736992 57.6967444,40.9764974 C57.6967444,40.9764974 57.831703,35.8455468 57.831703,35.8387598 L57.8712266,35.2027236 C57.8924344,34.8148967 57.8866504,34.7712661 57.9040023,34.6006223 C57.9107502,34.5269352 57.9367779,34.3349608 57.9146061,34.2244301 C57.8933984,34.114869 57.7613317,34.2457606 57.6842125,34.323326 C57.6070933,34.4008914 57.5521459,34.4784568 57.4634588,34.6093484 C56.8349374,35.3568848 55.4998113,37.5830115 53.0474208,44.202248 C53.0107892,44.3292614 52.1027107,47.2680201 51.8906329,47.720808 C51.8906329,47.720808 51.8250816,47.8235822 51.7595303,47.8662432 C51.6939789,47.9098737 51.689159,47.906965 51.6496354,47.9253868 C51.1734244,48.1493568 50.3549969,48.1396612 49.9906087,47.9321737 C49.9510851,47.9098737 49.9240934,47.8895128 49.8903537,47.857517 C49.7476832,47.7450472 49.7206915,47.590886 49.7206915,47.3281333 C49.7206915,47.3281333 49.7505752,45.4791683 49.7505752,45.4675335 C49.7505752,45.4675335 49.9395172,42.3135308 49.9433732,42.2718394 C49.2695442,43.4527724 48.2814545,44.7471449 47.1179186,45.4849857 C46.1298289,46.1093871 45.1137835,46.2897266 44.0890621,46.0163086 C43.2253271,45.7341645 41.321447,44.7006057 40.9782665,41.273185 C39.4782982,45.0438325 37.8703629,47.4202422 35.8122444,48.7466103 C35.2367424,49.0772328 32.8238755,49.1324981 32.3611603,48.619597 C32.2454815,48.4916141 32.2146338,48.2860658 32.2493375,48.1939569 C32.2850051,48.1028176 32.3062129,48.0524001 32.4778031,47.9195694 C32.7294045,47.7285646 33.2412831,47.4134552 34.2313008,46.8026277 C37.6004457,44.6307968 40.1280274,38.8521752 41.9567164,29.1797711 C40.4027645,29.3145409 32.6590332,29.984512 32.6580692,29.984512 C32.3544124,30.0194164 32.0401516,29.7809028 31.6690155,29.2379451 C31.6372038,29.193345 31.0000065,28.2509255 31.0000065,27.646885 C31.0000065,27.5489587 30.9980785,27.481089 31.0607378,27.3831627 C31.1513529,27.2348189 31.3759626,27.221245 31.3759626,27.221245 C32.4671992,27.2202754 37.4934428,27.0806577 42.3847279,26.8149962 C42.4917308,26.127573 42.8667229,23.7511633 42.8667229,23.7482546 C42.8667229,23.7482546 43.2156872,21.6210238 43.241715,21.544428 C43.241715,21.544428 43.2928064,21.3592406 43.3718536,21.2991274 C43.5058482,21.1982924 43.7468457,21.2341664 43.7468457,21.2341664 C44.3406635,21.3602102 45.3287532,21.6830761 45.3287532,22.4461256 L45.3287532,22.4693952 L45.0540161,24.2107383 C45.0540161,24.2107383 44.7580712,26.1944731 44.6867359,26.6773177 C47.3907278,26.501826 48.7538096,26.35833 49.9424092,26.163447 C50.2065424,26.1808992 50.4851355,26.3864474 50.4851355,26.9022573 L50.4851355,26.9294052 C50.4793516,27.207671 50.2576339,28.5068913 49.6859879,28.5243435 C49.5982648,28.5243435 49.290752,28.5485827 44.3666913,28.9703445 C43.8769844,32.5974961 43.3072663,37.4579373 43.3072663,40.4645658 C43.3072663,40.4645658 43.3082303,40.7515577 43.3082303,40.7525273 C43.3236541,41.826808 43.8316768,43.4934943 44.7493953,43.8221776 C45.0434122,43.92883 45.4887756,43.8047254 46.0016182,43.4741029 C47.6963126,42.3881875 49.7544311,39.4009504 49.9742208,37.0381147 C50.0204924,36.315787 51.0828093,19.3231491 54.4374944,18.3739426 C55.3156892,18.1237942 56.1225488,18.3002555 56.7086547,18.8655133 C57.3776637,19.5112452 57.4316472,20.48663 57.4316472,21.6927718 L57.4306832,22.1184118 C57.4306832,24.8089613 56.3751142,31.1247232 52.4333592,37.7749859 C52.4314313,37.8515817 52.3967276,39.2273978 52.3649159,40.423844 C54.5608851,34.805201 56.4425935,31.9507946 58.1025842,31.7898464 C58.6578424,31.7268246 59.1157376,31.8528683 59.46181,32.1611908 C59.9033174,32.5587134 60.1269631,33.2432279 60.1269631,34.2040692 C60.1269631,34.2040692 60.0768356,37.1321627 60.0768356,37.1418584 C59.9997164,40.0040213 59.9245252,42.9631409 60.5771464,43.733947 C60.713069,43.9414344 61.0533575,44.3942224 62.822279,43.7465514 C62.5118743,42.6189445 62.3393201,41.4564332 62.3393201,40.2851958 C62.3393201,37.7449293 63.0931602,35.1222495 64.3048956,33.4371414 C65.1946583,32.2028822 66.2492633,31.5348502 67.3645997,31.5135197 C68.4558364,31.5387285 69.7427629,32.279478 70.0763035,34.3019955 L70.2353618,36.1974998 C70.1138991,39.7975034 68.6977978,42.647062 66.0699612,44.7035144 C66.3495183,45.1068544 66.8941726,45.5635206 67.5834254,45.7535558 C68.0461406,45.87863 68.7382854,45.9338954 69.4198263,45.4781987 C71.0971688,44.3544701 72.2799845,41.2091935 72.7436637,39.9894778 C72.8641624,39.7587207 73.1687833,39.6142552 73.576551,39.8062295 Z M54.9146694,20.6117041 C53.5621915,23.6367544 52.8064234,30.3190127 52.5162624,33.3964196 C53.6470226,30.9618359 55.5431908,26.107212 55.5489748,20.7949524 C55.5422269,20.5612866 55.4525758,20.4129428 55.2877335,20.3916123 C55.1874785,20.3780384 55.0342041,20.3799775 54.9204533,20.5981302 L54.9146694,20.6117041 Z M64.8659377,40.5285572 C64.8659377,41.1461717 64.9671567,41.7637861 65.0789795,42.3784918 C66.860433,40.7205316 67.9053981,38.4546526 67.9053981,36.0491559 C67.9053981,35.309376 67.8109271,34.5977136 67.626805,33.9500426 C67.5718576,33.7852161 67.5439018,33.7134681 67.4735306,33.7037725 C67.4282231,33.697955 67.3472479,33.7270421 67.2942284,33.7658248 C65.6178499,35.0475928 64.8659377,38.086217 64.8659377,40.5285572 Z M116.803789,34.251578 C116.803789,34.251578 117.020687,34.0237297 117.248188,33.8947772 C117.555701,33.7173464 117.735967,33.6523854 117.885386,33.6165114 C118.43004,33.4865894 118.976622,33.5670635 119.596468,33.8860511 C120.983649,34.6714007 121.781833,36.5484831 121.781833,39.0412409 C121.781833,39.0412409 121.734597,39.7878078 121.710498,40.172726 C121.816537,40.1591521 121.908116,40.1591521 122.112481,40.0680127 C122.82487,39.7461164 123.840915,38.8628405 124.624639,36.4621916 C125.052651,35.3995458 125.456563,33.8860511 125.823843,31.970186 C125.823843,31.970186 126.216187,29.2263103 126.290414,28.6911091 C125.700452,28.7725528 119.671659,29.6083198 119.671659,29.6083198 C119.127969,29.6674635 118.681641,29.1516536 118.411724,28.1626949 C118.346173,27.9164248 118.295081,27.6759721 118.295081,27.474302 C118.295081,27.2639059 118.373164,27.1659796 118.42522,27.1058664 C118.490771,27.0283011 118.636334,26.9943662 118.636334,26.9943662 C119.473077,26.9391009 122.774743,26.6113871 126.601783,26.1624774 C126.703002,25.2520536 127.193673,20.8948178 127.20042,20.8492482 C127.20042,20.8492482 127.211024,20.8211307 127.232232,20.7542305 C127.26308,20.6611521 127.413462,20.5816476 127.413462,20.5816476 C127.614936,20.4837212 127.918593,20.5389866 128.731237,21.1178183 C129.559304,21.7092544 129.678839,21.9584332 129.678839,22.1329554 C129.678839,22.149438 129.678839,22.1659207 129.674983,22.1814337 C129.674983,22.1814337 129.287459,25.3082885 129.220943,25.8463984 C132.042542,25.4934759 135.644009,25.0009357 137.487157,24.5772347 C137.487157,24.5772347 137.563313,24.574326 137.61826,24.5966261 C137.681883,24.6218348 137.738759,24.6625566 137.738759,24.6625566 C137.892033,24.7847221 138,25.1677013 138,25.5632847 C138,25.6776937 137.994216,25.7901635 137.984576,25.8968159 C137.931557,26.5076434 137.761894,26.8731703 137.464986,26.9856401 C136.964675,27.1339839 131.976027,27.8698855 128.909575,28.3158865 C128.808356,29.1409884 128.401552,32.4055217 128.401552,32.4055217 C128.046804,35.7146552 127.879069,38.3227914 127.879069,40.61194 C127.879069,40.61194 127.935945,42.6829359 127.935945,42.6819664 C128.115247,46.2218569 129.076345,46.2325221 129.646063,46.2422178 C131.617422,46.2732439 133.965702,43.8270255 134.736894,42.0982868 C134.736894,42.0982868 134.791841,42.0110258 134.857393,41.9557604 C134.923908,41.9004951 135.026091,41.8869211 135.026091,41.8869211 C135.282512,41.8520167 135.427111,42.079865 135.478202,42.1535522 C135.48495,42.1680957 136.263854,43.684499 136.027677,44.0616608 C133.934854,47.5230163 131.253998,48.7078276 129.599791,48.6690449 C126.1034,48.59051 125.480662,45.6643556 125.33028,42.8080101 C125.33028,42.8080101 125.287864,41.0337018 125.279188,40.7156837 C124.5186,41.4515854 123.565214,42.0633824 122.748715,42.2088175 C122.132725,42.3164395 121.710498,42.2912307 121.355749,42.2485698 C121.014497,43.5933597 119.97146,47.6771775 115.57181,47.3213463 C112.976749,47.0227195 111.793933,45.3618506 111.241567,44.1246826 C110.269865,46.2257351 109.225864,47.2602635 107.966893,47.2602635 L107.965929,47.2602635 C104.699931,47.0682892 105.026723,41.1849543 105.222413,37.6634856 L105.278325,36.5940528 C105.278325,36.5940528 105.313992,35.9657731 105.314956,35.963834 C105.329416,35.7311378 105.350624,35.4024545 105.367012,35.1649105 C105.37858,35.0175363 105.396896,34.9196099 105.366048,34.8788881 C105.3352,34.8391359 105.289893,34.9070056 105.180962,35.0020232 C104.994912,35.1649105 104.676795,35.517833 104.134069,36.2585825 C103.079464,37.7012988 101.655651,40.5576443 100.59237,43.3635722 L99.7083908,45.719621 C98.8735755,47.9554433 98.6692097,48.4906445 98.3829046,48.7233407 C97.9558571,48.9250107 96.9417397,48.7184929 96.5985592,48.4479836 C96.5985592,48.4479836 96.4838444,48.3907791 96.4510688,48.2899441 C96.431789,48.2337092 96.4510688,48.1183307 96.4510688,48.1183307 C96.4510688,47.8507301 96.6457947,46.9887847 97.3620393,44.1111087 C97.3620393,44.1111087 97.3977069,43.9637345 97.4073468,43.9230126 C97.0304267,44.5076618 96.6602546,45.0806761 96.6602546,45.0806761 C96.1483759,45.755495 95.561306,46.3188136 94.9183247,46.6891884 C94.0796535,47.1749416 93.6072984,47.2922593 92.5160617,47.2961375 C91.8769364,47.2990462 91.2696227,47.1245241 90.6912288,46.9199454 C88.4085005,46.1122958 86.5933074,44.1683132 85.3169847,42.3591004 C85.2254057,43.5264596 85.0489955,45.7797342 85.0489955,45.7807037 C85.0489955,45.7807037 84.8533056,48.1454786 84.8484856,48.1745656 C84.716419,48.8125409 83.3176696,48.6564406 83.0400404,48.6205666 C82.7730152,48.5856621 82.217757,48.518762 82.217757,48.0970002 L82.2996962,47.3135897 L82.8221787,42.1176782 C82.8221787,42.1176782 83.3523732,36.3439044 83.4478082,35.3132543 C82.028815,37.4327286 81.9786875,37.4763591 81.8610807,37.5442288 C81.5612798,37.6295508 80.9231185,37.2921413 80.6156057,37.0255103 C80.3080929,36.7569401 80.1519265,36.4554047 80.1519265,36.1286605 C80.1519265,36.0685473 80.1577105,36.0094037 80.1663864,35.9502601 L80.1760263,35.8901469 L80.2116939,35.8436077 C80.2367576,35.8096728 82.698788,32.4258826 83.661814,30.8658487 C83.6888057,30.5468611 83.9702908,27.3463192 83.9702908,27.3434105 C83.9702908,27.3434105 84.6778594,20.3518601 84.6807514,20.3411948 C85.4442314,15.0299047 87.1360338,14.3676902 87.7134638,14.141781 C88.3872928,13.8741804 89.1006453,13.9885894 89.6809673,14.45786 C90.3056328,15.0143917 90.5832619,16.0857636 90.5832619,17.4800015 C90.5832619,21.1003661 88.7150493,26.8935312 86.2009635,31.4621327 C86.2009635,31.4621327 85.8317554,35.9463818 85.771024,36.6977965 C87.7645552,35.7534379 91.0286252,33.8336945 93.1224114,30.5478306 L93.160007,30.4915957 L93.2188104,30.4605696 C93.3691929,30.3820346 93.7759966,30.2666561 94.3061911,30.8716661 C95.0638872,31.6870723 94.7727622,32.6585788 94.7737262,32.6556701 C94.7496265,32.6925137 91.8981442,36.546544 86.4014734,38.9656146 C87.1620615,40.2696827 89.1488448,43.3519374 91.4768806,44.3370179 C91.8798284,44.5066922 92.302056,44.6928491 92.8573142,44.6220707 C94.026634,44.4746965 94.4970611,43.8066645 94.8730172,43.3499983 C95.4186355,42.6858446 95.8852067,41.8762559 96.33539,40.950319 C97.4516903,38.6563226 98.2161344,35.8659077 98.6277581,34.3640478 C98.9960023,33.1530582 98.9960023,33.1530582 99.0066061,33.1530582 C99.2996591,32.6818484 100.159538,32.8020748 100.650209,33.0289536 C101.127384,33.2500149 101.198719,33.5370069 101.198719,33.6882594 L101.186187,33.7861857 C101.186187,33.7861857 100.928802,35.4344502 100.716724,36.7947533 C101.910144,34.5414787 103.937415,31.6114461 106.214359,32.2785084 C107.521529,32.747779 107.789519,34.3252651 107.789519,36.560118 C107.789519,36.560118 107.761563,37.9630819 107.761563,37.9650211 L107.680588,42.3561917 C107.680588,43.6505642 107.837718,44.251696 107.970749,44.5280227 C108.071004,44.7374492 108.157763,44.7636275 108.154871,44.762658 C108.267658,44.8150146 108.399724,44.6889709 108.542395,44.5493531 C109.341542,43.7640036 110.50797,40.957106 111.126852,38.5574268 C112.371363,34.4067088 114.805438,32.5829526 116.130924,31.8674118 C116.312154,31.7588203 116.527124,31.7656073 116.71221,31.8838945 C117.119977,32.1437385 117.403391,32.8573401 117.403391,33.3392151 C117.403391,33.3721804 117.400499,33.402237 117.397607,33.4332632 C117.387967,33.5166459 117.029362,33.7037725 116.64473,34.0683298 C116.338182,34.3582304 115.985361,34.7654487 115.732796,35.0747407 C115.446491,35.4392981 114.951964,36.2004085 114.723498,36.589205 C113.968694,37.8748513 113.347885,39.4707592 113.249558,40.9454712 C113.241846,41.0734541 113.237026,41.2033761 113.237026,41.3362069 C113.237026,42.5549531 113.642866,44.0131824 115.346236,44.7471449 C115.702912,44.9022757 116.536764,45.0418934 117.412066,44.596862 C118.328821,44.1295305 118.996866,43.0882151 119.380534,41.6328945 C116.968631,40.2541697 116.019101,38.1172432 115.967045,36.5378179 L115.967045,36.3836567 C115.967045,35.4296024 116.266846,34.76254 116.803789,34.251578 Z M87.7259956,17.2162792 C87.3432916,18.2314162 86.8111692,22.3889211 86.3860496,26.4116562 C87.2189369,24.4104691 88.4297083,21.0034094 88.6678138,17.6283453 L88.6745618,17.3801361 C88.6745618,16.5986648 88.5174314,16.2990684 88.3892207,16.2961597 C88.2870378,16.293251 88.0315805,16.4057209 87.7259956,17.2162792 Z M119.76613,39.654977 C119.784446,39.3563503 119.800834,39.0373626 119.800834,39.036393 C119.800834,38.3121262 119.719858,37.6789987 119.555016,37.1505845 C119.368966,36.4796439 118.984334,35.9008121 118.595846,35.7098074 C118.595846,35.7098074 118.456068,35.6235159 118.306649,35.6913856 C118.184222,35.7476205 118.109031,35.8358511 118.015524,36.0695169 C117.923945,36.3031826 117.932621,36.5930832 117.932621,36.5930832 C117.932621,37.0429625 118.080111,37.5626506 118.360633,38.0997909 C118.737553,38.8230882 119.352578,39.3534416 119.76613,39.654977 Z" id="Shape"></path>
        </g>
    </g>
</svg>